<mxfile host="app.diagrams.net" modified="2023-02-26T07:29:10.744Z" agent="5.0 (Macintosh; Intel Mac OS X 10_15_7) AppleWebKit/537.36 (KHTML, like Gecko) Chrome/107.0.0.0 Safari/537.36" etag="cyq_4uVZcqXmFGr8PQhr" version="20.8.23" type="github">
  <diagram name="第 1 页" id="tDP9aZ8GYb4xz6D49_O7">
    <mxGraphModel dx="1242" dy="739" grid="1" gridSize="10" guides="1" tooltips="1" connect="1" arrows="1" fold="1" page="1" pageScale="1" pageWidth="827" pageHeight="1169" math="1" shadow="0">
      <root>
        <mxCell id="0" />
        <mxCell id="1" parent="0" />
        <mxCell id="jAihcUWYH7JJV95xpbsZ-118" value="" style="rounded=0;whiteSpace=wrap;html=1;fillColor=#f5f5f5;strokeColor=#666666;fontColor=#333333;" vertex="1" parent="1">
          <mxGeometry x="635" y="1080" width="120" height="380" as="geometry" />
        </mxCell>
        <mxCell id="jAihcUWYH7JJV95xpbsZ-66" value="" style="rounded=0;whiteSpace=wrap;html=1;dashed=1;fillColor=#f5f5f5;strokeColor=#666666;fontColor=#333333;" vertex="1" parent="1">
          <mxGeometry x="210" y="816" width="410" height="84" as="geometry" />
        </mxCell>
        <mxCell id="jAihcUWYH7JJV95xpbsZ-1" value="" style="rounded=0;whiteSpace=wrap;html=1;dashed=1;fillColor=#f8cecc;strokeColor=#b85450;" vertex="1" parent="1">
          <mxGeometry x="210" y="400" width="410" height="330" as="geometry" />
        </mxCell>
        <mxCell id="jAihcUWYH7JJV95xpbsZ-3" value="" style="rounded=0;whiteSpace=wrap;html=1;dashed=1;fillColor=#f5f5f5;fontColor=#333333;strokeColor=#666666;" vertex="1" parent="1">
          <mxGeometry x="230" y="440" width="170" height="60" as="geometry" />
        </mxCell>
        <mxCell id="jAihcUWYH7JJV95xpbsZ-2" value="任务配置" style="rounded=1;whiteSpace=wrap;html=1;fillColor=#ffe6cc;strokeColor=#d79b00;" vertex="1" parent="1">
          <mxGeometry x="240" y="462.5" width="60" height="25" as="geometry" />
        </mxCell>
        <mxCell id="jAihcUWYH7JJV95xpbsZ-4" value="坐席分配" style="rounded=1;whiteSpace=wrap;html=1;fillColor=#ffe6cc;strokeColor=#d79b00;" vertex="1" parent="1">
          <mxGeometry x="320" y="462.5" width="60" height="25" as="geometry" />
        </mxCell>
        <mxCell id="jAihcUWYH7JJV95xpbsZ-5" value="任务管理" style="text;html=1;strokeColor=none;fillColor=none;align=center;verticalAlign=middle;whiteSpace=wrap;rounded=0;" vertex="1" parent="1">
          <mxGeometry x="279" y="438" width="60" height="20" as="geometry" />
        </mxCell>
        <mxCell id="jAihcUWYH7JJV95xpbsZ-6" value="" style="rounded=0;whiteSpace=wrap;html=1;dashed=1;fillColor=#f5f5f5;fontColor=#333333;strokeColor=#666666;" vertex="1" parent="1">
          <mxGeometry x="230" y="520" width="170" height="60" as="geometry" />
        </mxCell>
        <mxCell id="jAihcUWYH7JJV95xpbsZ-7" value="并发调度" style="rounded=1;whiteSpace=wrap;html=1;fillColor=#ffe6cc;strokeColor=#d79b00;" vertex="1" parent="1">
          <mxGeometry x="240" y="538.5" width="60" height="25" as="geometry" />
        </mxCell>
        <mxCell id="jAihcUWYH7JJV95xpbsZ-8" value="策略执行" style="rounded=1;whiteSpace=wrap;html=1;fillColor=#ffe6cc;strokeColor=#d79b00;" vertex="1" parent="1">
          <mxGeometry x="330" y="538.5" width="60" height="25" as="geometry" />
        </mxCell>
        <mxCell id="jAihcUWYH7JJV95xpbsZ-9" value="任务调度" style="text;html=1;strokeColor=none;fillColor=none;align=center;verticalAlign=middle;whiteSpace=wrap;rounded=0;" vertex="1" parent="1">
          <mxGeometry x="285" y="517.5" width="60" height="20" as="geometry" />
        </mxCell>
        <mxCell id="jAihcUWYH7JJV95xpbsZ-10" value="" style="rounded=0;whiteSpace=wrap;html=1;dashed=1;fillColor=#f5f5f5;fontColor=#333333;strokeColor=#666666;" vertex="1" parent="1">
          <mxGeometry x="420" y="440" width="170" height="140" as="geometry" />
        </mxCell>
        <mxCell id="jAihcUWYH7JJV95xpbsZ-11" value="Bot设计" style="text;html=1;strokeColor=none;fillColor=none;align=center;verticalAlign=middle;whiteSpace=wrap;rounded=0;" vertex="1" parent="1">
          <mxGeometry x="470" y="440" width="60" height="20" as="geometry" />
        </mxCell>
        <mxCell id="jAihcUWYH7JJV95xpbsZ-12" value="对话流程" style="rounded=1;whiteSpace=wrap;html=1;fillColor=#ffe6cc;strokeColor=#d79b00;" vertex="1" parent="1">
          <mxGeometry x="430" y="462.5" width="60" height="25" as="geometry" />
        </mxCell>
        <mxCell id="jAihcUWYH7JJV95xpbsZ-13" value="意图规则" style="rounded=1;whiteSpace=wrap;html=1;fillColor=#ffe6cc;strokeColor=#d79b00;" vertex="1" parent="1">
          <mxGeometry x="430" y="500" width="60" height="25" as="geometry" />
        </mxCell>
        <mxCell id="jAihcUWYH7JJV95xpbsZ-14" value="知识关联" style="rounded=1;whiteSpace=wrap;html=1;fillColor=#ffe6cc;strokeColor=#d79b00;" vertex="1" parent="1">
          <mxGeometry x="430" y="538.5" width="60" height="25" as="geometry" />
        </mxCell>
        <mxCell id="jAihcUWYH7JJV95xpbsZ-15" value="标签关联" style="rounded=1;whiteSpace=wrap;html=1;fillColor=#ffe6cc;strokeColor=#d79b00;" vertex="1" parent="1">
          <mxGeometry x="520" y="462.5" width="60" height="25" as="geometry" />
        </mxCell>
        <mxCell id="jAihcUWYH7JJV95xpbsZ-16" value="实体变量" style="rounded=1;whiteSpace=wrap;html=1;fillColor=#ffe6cc;strokeColor=#d79b00;" vertex="1" parent="1">
          <mxGeometry x="520" y="500" width="60" height="25" as="geometry" />
        </mxCell>
        <mxCell id="jAihcUWYH7JJV95xpbsZ-17" value="流程测试" style="rounded=1;whiteSpace=wrap;html=1;fillColor=#ffe6cc;strokeColor=#d79b00;" vertex="1" parent="1">
          <mxGeometry x="520" y="538.5" width="60" height="25" as="geometry" />
        </mxCell>
        <mxCell id="jAihcUWYH7JJV95xpbsZ-18" value="" style="rounded=0;whiteSpace=wrap;html=1;dashed=1;fillColor=#f5f5f5;fontColor=#333333;strokeColor=#666666;" vertex="1" parent="1">
          <mxGeometry x="230" y="600" width="360" height="100" as="geometry" />
        </mxCell>
        <mxCell id="jAihcUWYH7JJV95xpbsZ-19" value="流程管理" style="rounded=1;whiteSpace=wrap;html=1;fillColor=#ffe6cc;strokeColor=#d79b00;" vertex="1" parent="1">
          <mxGeometry x="240" y="620" width="60" height="25" as="geometry" />
        </mxCell>
        <mxCell id="jAihcUWYH7JJV95xpbsZ-20" value="状态追踪" style="rounded=1;whiteSpace=wrap;html=1;fillColor=#ffe6cc;strokeColor=#d79b00;" vertex="1" parent="1">
          <mxGeometry x="310" y="620" width="60" height="25" as="geometry" />
        </mxCell>
        <mxCell id="jAihcUWYH7JJV95xpbsZ-21" value="场景切换" style="rounded=1;whiteSpace=wrap;html=1;fillColor=#ffe6cc;strokeColor=#d79b00;" vertex="1" parent="1">
          <mxGeometry x="380" y="620" width="60" height="25" as="geometry" />
        </mxCell>
        <mxCell id="jAihcUWYH7JJV95xpbsZ-22" value="断句补齐" style="rounded=1;whiteSpace=wrap;html=1;fillColor=#ffe6cc;strokeColor=#d79b00;" vertex="1" parent="1">
          <mxGeometry x="450" y="620" width="60" height="25" as="geometry" />
        </mxCell>
        <mxCell id="jAihcUWYH7JJV95xpbsZ-23" value="智能回退" style="rounded=1;whiteSpace=wrap;html=1;fillColor=#ffe6cc;strokeColor=#d79b00;" vertex="1" parent="1">
          <mxGeometry x="520" y="620" width="60" height="25" as="geometry" />
        </mxCell>
        <mxCell id="jAihcUWYH7JJV95xpbsZ-24" value="多伦对话" style="text;html=1;strokeColor=none;fillColor=none;align=center;verticalAlign=middle;whiteSpace=wrap;rounded=0;" vertex="1" parent="1">
          <mxGeometry x="374" y="600" width="60" height="20" as="geometry" />
        </mxCell>
        <mxCell id="jAihcUWYH7JJV95xpbsZ-25" value="变量收集" style="rounded=1;whiteSpace=wrap;html=1;fillColor=#ffe6cc;strokeColor=#d79b00;" vertex="1" parent="1">
          <mxGeometry x="240" y="660" width="60" height="25" as="geometry" />
        </mxCell>
        <mxCell id="jAihcUWYH7JJV95xpbsZ-26" value="实体定义" style="rounded=1;whiteSpace=wrap;html=1;fillColor=#ffe6cc;strokeColor=#d79b00;" vertex="1" parent="1">
          <mxGeometry x="310" y="660" width="60" height="25" as="geometry" />
        </mxCell>
        <mxCell id="jAihcUWYH7JJV95xpbsZ-27" value="分支赋值" style="rounded=1;whiteSpace=wrap;html=1;fillColor=#ffe6cc;strokeColor=#d79b00;" vertex="1" parent="1">
          <mxGeometry x="380" y="660" width="60" height="25" as="geometry" />
        </mxCell>
        <mxCell id="jAihcUWYH7JJV95xpbsZ-28" value="知识库" style="rounded=1;whiteSpace=wrap;html=1;fillColor=#ffe6cc;strokeColor=#d79b00;" vertex="1" parent="1">
          <mxGeometry x="450" y="660" width="60" height="25" as="geometry" />
        </mxCell>
        <mxCell id="jAihcUWYH7JJV95xpbsZ-29" value="知识子流程" style="rounded=1;whiteSpace=wrap;html=1;fillColor=#ffe6cc;strokeColor=#d79b00;" vertex="1" parent="1">
          <mxGeometry x="520" y="660" width="60" height="25" as="geometry" />
        </mxCell>
        <mxCell id="jAihcUWYH7JJV95xpbsZ-30" value="" style="rounded=0;whiteSpace=wrap;html=1;dashed=1;fillColor=#e1d5e7;strokeColor=#9673a6;" vertex="1" parent="1">
          <mxGeometry x="210" y="741" width="410" height="59" as="geometry" />
        </mxCell>
        <mxCell id="jAihcUWYH7JJV95xpbsZ-31" value="通信线路" style="rounded=1;whiteSpace=wrap;html=1;fillColor=#60a917;strokeColor=#2D7600;fontColor=#ffffff;" vertex="1" parent="1">
          <mxGeometry x="251" y="759.5" width="60" height="25" as="geometry" />
        </mxCell>
        <mxCell id="jAihcUWYH7JJV95xpbsZ-33" value="外呼平台" style="text;html=1;strokeColor=none;fillColor=none;align=center;verticalAlign=middle;whiteSpace=wrap;rounded=0;" vertex="1" parent="1">
          <mxGeometry x="210" y="400" width="60" height="20" as="geometry" />
        </mxCell>
        <mxCell id="jAihcUWYH7JJV95xpbsZ-34" value="智能呼叫" style="rounded=1;whiteSpace=wrap;html=1;fillColor=#60a917;fontColor=#ffffff;strokeColor=#2D7600;" vertex="1" parent="1">
          <mxGeometry x="340" y="759.5" width="60" height="25" as="geometry" />
        </mxCell>
        <mxCell id="jAihcUWYH7JJV95xpbsZ-35" value="电话系统" style="rounded=1;whiteSpace=wrap;html=1;fillColor=#60a917;fontColor=#ffffff;strokeColor=#2D7600;" vertex="1" parent="1">
          <mxGeometry x="434" y="759" width="60" height="25" as="geometry" />
        </mxCell>
        <mxCell id="jAihcUWYH7JJV95xpbsZ-36" value="通信平台" style="rounded=1;whiteSpace=wrap;html=1;fillColor=#60a917;fontColor=#ffffff;strokeColor=#2D7600;" vertex="1" parent="1">
          <mxGeometry x="530" y="757" width="60" height="25" as="geometry" />
        </mxCell>
        <mxCell id="jAihcUWYH7JJV95xpbsZ-37" value="呼叫中台" style="text;html=1;strokeColor=none;fillColor=none;align=center;verticalAlign=middle;whiteSpace=wrap;rounded=0;" vertex="1" parent="1">
          <mxGeometry x="210" y="741" width="60" height="20" as="geometry" />
        </mxCell>
        <mxCell id="jAihcUWYH7JJV95xpbsZ-38" value="" style="rounded=0;whiteSpace=wrap;html=1;dashed=1;fillColor=#dae8fc;strokeColor=#6c8ebf;" vertex="1" parent="1">
          <mxGeometry x="251" y="829" width="140" height="60" as="geometry" />
        </mxCell>
        <mxCell id="jAihcUWYH7JJV95xpbsZ-39" value="ASR" style="rounded=1;whiteSpace=wrap;html=1;fillColor=#1ba1e2;strokeColor=#006EAF;fontColor=#ffffff;" vertex="1" parent="1">
          <mxGeometry x="258" y="851" width="60" height="25" as="geometry" />
        </mxCell>
        <mxCell id="jAihcUWYH7JJV95xpbsZ-40" value="TTS" style="rounded=1;whiteSpace=wrap;html=1;fillColor=#1ba1e2;strokeColor=#006EAF;fontColor=#ffffff;" vertex="1" parent="1">
          <mxGeometry x="325" y="852" width="60" height="25" as="geometry" />
        </mxCell>
        <mxCell id="jAihcUWYH7JJV95xpbsZ-41" value="" style="rounded=0;whiteSpace=wrap;html=1;dashed=1;fillColor=#dae8fc;strokeColor=#6c8ebf;" vertex="1" parent="1">
          <mxGeometry x="400" y="828" width="210" height="64" as="geometry" />
        </mxCell>
        <mxCell id="jAihcUWYH7JJV95xpbsZ-42" value="语音识别" style="text;html=1;strokeColor=none;fillColor=none;align=center;verticalAlign=middle;whiteSpace=wrap;rounded=0;" vertex="1" parent="1">
          <mxGeometry x="291" y="827.5" width="60" height="20" as="geometry" />
        </mxCell>
        <mxCell id="jAihcUWYH7JJV95xpbsZ-43" value="NLP" style="text;html=1;strokeColor=none;fillColor=none;align=center;verticalAlign=middle;whiteSpace=wrap;rounded=0;" vertex="1" parent="1">
          <mxGeometry x="474" y="826.5" width="42" height="20" as="geometry" />
        </mxCell>
        <mxCell id="jAihcUWYH7JJV95xpbsZ-44" value="自然语言理解(NLU)" style="rounded=1;whiteSpace=wrap;html=1;fillColor=#1ba1e2;strokeColor=#006EAF;fontColor=#ffffff;" vertex="1" parent="1">
          <mxGeometry x="407" y="851.5" width="60" height="27.5" as="geometry" />
        </mxCell>
        <mxCell id="jAihcUWYH7JJV95xpbsZ-45" value="自然语言生成(NLG)" style="rounded=1;whiteSpace=wrap;html=1;fillColor=#1ba1e2;strokeColor=#006EAF;fontColor=#ffffff;" vertex="1" parent="1">
          <mxGeometry x="476" y="849.5" width="60" height="27.5" as="geometry" />
        </mxCell>
        <mxCell id="jAihcUWYH7JJV95xpbsZ-46" value="对话状态DST" style="rounded=1;whiteSpace=wrap;html=1;fillColor=#1ba1e2;strokeColor=#006EAF;fontColor=#ffffff;" vertex="1" parent="1">
          <mxGeometry x="544" y="846.75" width="60" height="27.5" as="geometry" />
        </mxCell>
        <mxCell id="jAihcUWYH7JJV95xpbsZ-47" value="" style="rounded=0;whiteSpace=wrap;html=1;dashed=1;fillColor=#fff2cc;strokeColor=#d6b656;" vertex="1" parent="1">
          <mxGeometry x="640" y="400" width="166" height="500" as="geometry" />
        </mxCell>
        <mxCell id="jAihcUWYH7JJV95xpbsZ-48" value="" style="rounded=0;whiteSpace=wrap;html=1;dashed=1;fillColor=#f5f5f5;fontColor=#333333;strokeColor=#666666;" vertex="1" parent="1">
          <mxGeometry x="663" y="440" width="120" height="240" as="geometry" />
        </mxCell>
        <mxCell id="jAihcUWYH7JJV95xpbsZ-49" value="" style="rounded=0;whiteSpace=wrap;html=1;dashed=1;fillColor=#f5f5f5;fontColor=#333333;strokeColor=#666666;" vertex="1" parent="1">
          <mxGeometry x="663" y="700" width="120" height="190" as="geometry" />
        </mxCell>
        <mxCell id="jAihcUWYH7JJV95xpbsZ-50" value="通用能力" style="text;html=1;strokeColor=none;fillColor=none;align=center;verticalAlign=middle;whiteSpace=wrap;rounded=0;" vertex="1" parent="1">
          <mxGeometry x="640" y="400" width="60" height="20" as="geometry" />
        </mxCell>
        <mxCell id="jAihcUWYH7JJV95xpbsZ-51" value="任务调度管理" style="rounded=1;whiteSpace=wrap;html=1;fillColor=#dae8fc;strokeColor=#6c8ebf;" vertex="1" parent="1">
          <mxGeometry x="681" y="470" width="80" height="25" as="geometry" />
        </mxCell>
        <mxCell id="jAihcUWYH7JJV95xpbsZ-52" value="多场景话术切换" style="rounded=1;whiteSpace=wrap;html=1;fillColor=#dae8fc;strokeColor=#6c8ebf;" vertex="1" parent="1">
          <mxGeometry x="682" y="508" width="80" height="26" as="geometry" />
        </mxCell>
        <mxCell id="jAihcUWYH7JJV95xpbsZ-53" value="自定义知识库" style="rounded=1;whiteSpace=wrap;html=1;fillColor=#dae8fc;strokeColor=#6c8ebf;" vertex="1" parent="1">
          <mxGeometry x="683" y="543.5" width="80" height="25" as="geometry" />
        </mxCell>
        <mxCell id="jAihcUWYH7JJV95xpbsZ-54" value="标签定义、意图规则组合" style="rounded=1;whiteSpace=wrap;html=1;fillColor=#dae8fc;strokeColor=#6c8ebf;" vertex="1" parent="1">
          <mxGeometry x="683" y="582" width="80" height="35" as="geometry" />
        </mxCell>
        <mxCell id="jAihcUWYH7JJV95xpbsZ-55" value="线路灵活切换" style="rounded=1;whiteSpace=wrap;html=1;fillColor=#dae8fc;strokeColor=#6c8ebf;" vertex="1" parent="1">
          <mxGeometry x="683" y="629" width="80" height="35" as="geometry" />
        </mxCell>
        <mxCell id="jAihcUWYH7JJV95xpbsZ-56" value="外呼侧" style="text;html=1;strokeColor=none;fillColor=none;align=center;verticalAlign=middle;whiteSpace=wrap;rounded=0;" vertex="1" parent="1">
          <mxGeometry x="663" y="440" width="47" height="20" as="geometry" />
        </mxCell>
        <mxCell id="jAihcUWYH7JJV95xpbsZ-57" value="话术信息管理" style="rounded=1;whiteSpace=wrap;html=1;fillColor=#dae8fc;strokeColor=#6c8ebf;" vertex="1" parent="1">
          <mxGeometry x="682" y="725" width="80" height="25" as="geometry" />
        </mxCell>
        <mxCell id="jAihcUWYH7JJV95xpbsZ-58" value="行业信息管理" style="rounded=1;whiteSpace=wrap;html=1;fillColor=#dae8fc;strokeColor=#6c8ebf;" vertex="1" parent="1">
          <mxGeometry x="683" y="762" width="80" height="25" as="geometry" />
        </mxCell>
        <mxCell id="jAihcUWYH7JJV95xpbsZ-59" value="模型测试迭代" style="rounded=1;whiteSpace=wrap;html=1;fillColor=#dae8fc;strokeColor=#6c8ebf;" vertex="1" parent="1">
          <mxGeometry x="683" y="803.5" width="80" height="25" as="geometry" />
        </mxCell>
        <mxCell id="jAihcUWYH7JJV95xpbsZ-60" value="监控大盘分析" style="rounded=1;whiteSpace=wrap;html=1;fillColor=#dae8fc;strokeColor=#6c8ebf;" vertex="1" parent="1">
          <mxGeometry x="683" y="843" width="80" height="25" as="geometry" />
        </mxCell>
        <mxCell id="jAihcUWYH7JJV95xpbsZ-61" value="AI侧" style="text;html=1;strokeColor=none;fillColor=none;align=center;verticalAlign=middle;whiteSpace=wrap;rounded=0;" vertex="1" parent="1">
          <mxGeometry x="663" y="700" width="47" height="20" as="geometry" />
        </mxCell>
        <mxCell id="jAihcUWYH7JJV95xpbsZ-67" value="AI能力" style="text;html=1;strokeColor=none;fillColor=none;align=center;verticalAlign=middle;whiteSpace=wrap;rounded=0;" vertex="1" parent="1">
          <mxGeometry x="210" y="815" width="49" height="20" as="geometry" />
        </mxCell>
        <mxCell id="jAihcUWYH7JJV95xpbsZ-106" value="接听" style="edgeStyle=orthogonalEdgeStyle;rounded=0;orthogonalLoop=1;jettySize=auto;html=1;exitX=0.25;exitY=1;exitDx=0;exitDy=0;entryX=0.332;entryY=-0.008;entryDx=0;entryDy=0;entryPerimeter=0;" edge="1" parent="1" source="jAihcUWYH7JJV95xpbsZ-68" target="jAihcUWYH7JJV95xpbsZ-71">
          <mxGeometry relative="1" as="geometry" />
        </mxCell>
        <mxCell id="jAihcUWYH7JJV95xpbsZ-68" value="" style="rounded=0;whiteSpace=wrap;html=1;fillColor=#fff2cc;strokeColor=#d6b656;" vertex="1" parent="1">
          <mxGeometry x="160" y="1000" width="595" height="40" as="geometry" />
        </mxCell>
        <mxCell id="jAihcUWYH7JJV95xpbsZ-101" style="edgeStyle=orthogonalEdgeStyle;rounded=0;orthogonalLoop=1;jettySize=auto;html=1;exitX=1;exitY=0.5;exitDx=0;exitDy=0;entryX=0;entryY=0.5;entryDx=0;entryDy=0;" edge="1" parent="1" source="jAihcUWYH7JJV95xpbsZ-69" target="jAihcUWYH7JJV95xpbsZ-70">
          <mxGeometry relative="1" as="geometry" />
        </mxCell>
        <mxCell id="jAihcUWYH7JJV95xpbsZ-69" value="通信线路" style="rounded=1;whiteSpace=wrap;html=1;fillColor=#1ba1e2;fontColor=#ffffff;strokeColor=#006EAF;" vertex="1" parent="1">
          <mxGeometry x="364" y="1005" width="110" height="30" as="geometry" />
        </mxCell>
        <mxCell id="jAihcUWYH7JJV95xpbsZ-70" value="运营商" style="rounded=1;whiteSpace=wrap;html=1;fillColor=#1ba1e2;fontColor=#ffffff;strokeColor=#006EAF;" vertex="1" parent="1">
          <mxGeometry x="505" y="1005" width="110" height="30" as="geometry" />
        </mxCell>
        <mxCell id="jAihcUWYH7JJV95xpbsZ-110" style="edgeStyle=orthogonalEdgeStyle;rounded=0;orthogonalLoop=1;jettySize=auto;html=1;entryX=0.563;entryY=1.07;entryDx=0;entryDy=0;entryPerimeter=0;" edge="1" parent="1">
          <mxGeometry relative="1" as="geometry">
            <mxPoint x="504" y="1076" as="sourcePoint" />
            <mxPoint x="503.7249999999999" y="1039.5" as="targetPoint" />
            <Array as="points">
              <mxPoint x="504" y="1040" />
              <mxPoint x="504" y="1040" />
            </Array>
          </mxGeometry>
        </mxCell>
        <mxCell id="jAihcUWYH7JJV95xpbsZ-111" value="挂断" style="edgeLabel;html=1;align=center;verticalAlign=middle;resizable=0;points=[];" vertex="1" connectable="0" parent="jAihcUWYH7JJV95xpbsZ-110">
          <mxGeometry x="0.0684" y="2" relative="1" as="geometry">
            <mxPoint as="offset" />
          </mxGeometry>
        </mxCell>
        <mxCell id="jAihcUWYH7JJV95xpbsZ-71" value="" style="rounded=0;whiteSpace=wrap;html=1;fillColor=#e1d5e7;strokeColor=#9673a6;" vertex="1" parent="1">
          <mxGeometry x="160" y="1080" width="452" height="60" as="geometry" />
        </mxCell>
        <mxCell id="jAihcUWYH7JJV95xpbsZ-100" style="edgeStyle=orthogonalEdgeStyle;rounded=0;orthogonalLoop=1;jettySize=auto;html=1;exitX=1;exitY=0.5;exitDx=0;exitDy=0;entryX=0;entryY=0.5;entryDx=0;entryDy=0;" edge="1" parent="1" source="jAihcUWYH7JJV95xpbsZ-72" target="jAihcUWYH7JJV95xpbsZ-69">
          <mxGeometry relative="1" as="geometry" />
        </mxCell>
        <mxCell id="jAihcUWYH7JJV95xpbsZ-72" value="拨打电话" style="rounded=1;whiteSpace=wrap;html=1;fillColor=#1ba1e2;strokeColor=#006EAF;fontColor=#ffffff;" vertex="1" parent="1">
          <mxGeometry x="220" y="1005" width="110" height="30" as="geometry" />
        </mxCell>
        <mxCell id="jAihcUWYH7JJV95xpbsZ-99" style="edgeStyle=orthogonalEdgeStyle;rounded=0;orthogonalLoop=1;jettySize=auto;html=1;exitX=1;exitY=0.3333333333333333;exitDx=0;exitDy=0;exitPerimeter=0;entryX=0;entryY=0.5;entryDx=0;entryDy=0;" edge="1" parent="1" source="jAihcUWYH7JJV95xpbsZ-73" target="jAihcUWYH7JJV95xpbsZ-72">
          <mxGeometry relative="1" as="geometry" />
        </mxCell>
        <mxCell id="jAihcUWYH7JJV95xpbsZ-73" value="" style="shape=umlActor;verticalLabelPosition=bottom;verticalAlign=top;html=1;outlineConnect=0;fillColor=#1ba1e2;fontColor=#ffffff;strokeColor=#006EAF;" vertex="1" parent="1">
          <mxGeometry x="112" y="1010" width="20" height="30" as="geometry" />
        </mxCell>
        <mxCell id="jAihcUWYH7JJV95xpbsZ-104" style="edgeStyle=orthogonalEdgeStyle;rounded=0;orthogonalLoop=1;jettySize=auto;html=1;exitX=1;exitY=0.5;exitDx=0;exitDy=0;entryX=0;entryY=0.5;entryDx=0;entryDy=0;" edge="1" parent="1" source="jAihcUWYH7JJV95xpbsZ-74" target="jAihcUWYH7JJV95xpbsZ-77">
          <mxGeometry relative="1" as="geometry" />
        </mxCell>
        <mxCell id="jAihcUWYH7JJV95xpbsZ-74" value="通话开始" style="rounded=1;whiteSpace=wrap;html=1;fillColor=#60a917;fontColor=#ffffff;strokeColor=#2D7600;" vertex="1" parent="1">
          <mxGeometry x="206" y="1095" width="75" height="30" as="geometry" />
        </mxCell>
        <mxCell id="jAihcUWYH7JJV95xpbsZ-112" style="edgeStyle=orthogonalEdgeStyle;rounded=0;orthogonalLoop=1;jettySize=auto;html=1;exitX=1;exitY=0.5;exitDx=0;exitDy=0;entryX=0;entryY=0.5;entryDx=0;entryDy=0;" edge="1" parent="1" source="jAihcUWYH7JJV95xpbsZ-77" target="jAihcUWYH7JJV95xpbsZ-79">
          <mxGeometry relative="1" as="geometry" />
        </mxCell>
        <mxCell id="jAihcUWYH7JJV95xpbsZ-77" value="" style="rounded=0;whiteSpace=wrap;html=1;" vertex="1" parent="1">
          <mxGeometry x="304" y="1090" width="186" height="40" as="geometry" />
        </mxCell>
        <mxCell id="jAihcUWYH7JJV95xpbsZ-75" value="语音开始" style="rounded=1;whiteSpace=wrap;html=1;fillColor=#60a917;fontColor=#ffffff;strokeColor=#2D7600;" vertex="1" parent="1">
          <mxGeometry x="311" y="1095" width="81" height="30" as="geometry" />
        </mxCell>
        <mxCell id="jAihcUWYH7JJV95xpbsZ-76" value="语音结束" style="rounded=1;whiteSpace=wrap;html=1;fillColor=#60a917;fontColor=#ffffff;strokeColor=#2D7600;" vertex="1" parent="1">
          <mxGeometry x="399" y="1095" width="81" height="30" as="geometry" />
        </mxCell>
        <mxCell id="jAihcUWYH7JJV95xpbsZ-139" style="edgeStyle=orthogonalEdgeStyle;rounded=0;orthogonalLoop=1;jettySize=auto;html=1;exitX=0.5;exitY=0;exitDx=0;exitDy=0;entryX=0.25;entryY=1;entryDx=0;entryDy=0;" edge="1" parent="1">
          <mxGeometry relative="1" as="geometry">
            <mxPoint x="362.5" y="1149" as="sourcePoint" />
            <mxPoint x="357.5" y="1130" as="targetPoint" />
          </mxGeometry>
        </mxCell>
        <mxCell id="jAihcUWYH7JJV95xpbsZ-78" value="外呼机器人" style="rounded=1;whiteSpace=wrap;html=1;fillColor=#0050ef;fontColor=#ffffff;strokeColor=#001DBC;" vertex="1" parent="1">
          <mxGeometry x="318" y="1149" width="75" height="30" as="geometry" />
        </mxCell>
        <mxCell id="jAihcUWYH7JJV95xpbsZ-117" style="edgeStyle=orthogonalEdgeStyle;rounded=0;orthogonalLoop=1;jettySize=auto;html=1;exitX=1;exitY=0.5;exitDx=0;exitDy=0;" edge="1" parent="1" source="jAihcUWYH7JJV95xpbsZ-79" target="jAihcUWYH7JJV95xpbsZ-81">
          <mxGeometry relative="1" as="geometry" />
        </mxCell>
        <mxCell id="jAihcUWYH7JJV95xpbsZ-79" value="用户语音" style="rounded=1;whiteSpace=wrap;html=1;fillColor=#60a917;fontColor=#ffffff;strokeColor=#2D7600;" vertex="1" parent="1">
          <mxGeometry x="505" y="1095" width="75" height="30" as="geometry" />
        </mxCell>
        <mxCell id="jAihcUWYH7JJV95xpbsZ-81" value="ASR" style="rounded=1;whiteSpace=wrap;html=1;fillColor=#dae8fc;strokeColor=#6c8ebf;" vertex="1" parent="1">
          <mxGeometry x="657.5" y="1095" width="75" height="30" as="geometry" />
        </mxCell>
        <mxCell id="jAihcUWYH7JJV95xpbsZ-133" style="edgeStyle=orthogonalEdgeStyle;rounded=0;orthogonalLoop=1;jettySize=auto;html=1;exitX=0;exitY=0.5;exitDx=0;exitDy=0;" edge="1" parent="1" source="jAihcUWYH7JJV95xpbsZ-82" target="jAihcUWYH7JJV95xpbsZ-78">
          <mxGeometry relative="1" as="geometry" />
        </mxCell>
        <mxCell id="jAihcUWYH7JJV95xpbsZ-82" value="TTS" style="rounded=1;whiteSpace=wrap;html=1;fillColor=#dae8fc;strokeColor=#6c8ebf;" vertex="1" parent="1">
          <mxGeometry x="657" y="1149" width="75" height="30" as="geometry" />
        </mxCell>
        <mxCell id="jAihcUWYH7JJV95xpbsZ-83" value="" style="rounded=0;whiteSpace=wrap;html=1;fillColor=#ffe6cc;strokeColor=#d79b00;" vertex="1" parent="1">
          <mxGeometry x="160" y="1190" width="450" height="270" as="geometry" />
        </mxCell>
        <mxCell id="jAihcUWYH7JJV95xpbsZ-122" style="edgeStyle=orthogonalEdgeStyle;rounded=0;orthogonalLoop=1;jettySize=auto;html=1;exitX=0.5;exitY=1;exitDx=0;exitDy=0;entryX=0.5;entryY=0;entryDx=0;entryDy=0;" edge="1" parent="1" source="jAihcUWYH7JJV95xpbsZ-84" target="jAihcUWYH7JJV95xpbsZ-85">
          <mxGeometry relative="1" as="geometry" />
        </mxCell>
        <mxCell id="jAihcUWYH7JJV95xpbsZ-84" value="NLU" style="rounded=1;whiteSpace=wrap;html=1;fillColor=#dae8fc;strokeColor=#6c8ebf;" vertex="1" parent="1">
          <mxGeometry x="657" y="1300" width="75" height="30" as="geometry" />
        </mxCell>
        <mxCell id="jAihcUWYH7JJV95xpbsZ-123" style="edgeStyle=orthogonalEdgeStyle;rounded=0;orthogonalLoop=1;jettySize=auto;html=1;exitX=0.5;exitY=1;exitDx=0;exitDy=0;entryX=1;entryY=0.5;entryDx=0;entryDy=0;" edge="1" parent="1" source="jAihcUWYH7JJV95xpbsZ-85" target="jAihcUWYH7JJV95xpbsZ-97">
          <mxGeometry relative="1" as="geometry" />
        </mxCell>
        <mxCell id="jAihcUWYH7JJV95xpbsZ-85" value="话术、意图、实体" style="rounded=1;whiteSpace=wrap;html=1;fillColor=#dae8fc;strokeColor=#6c8ebf;" vertex="1" parent="1">
          <mxGeometry x="657" y="1363" width="75" height="30" as="geometry" />
        </mxCell>
        <mxCell id="jAihcUWYH7JJV95xpbsZ-120" style="edgeStyle=orthogonalEdgeStyle;rounded=0;orthogonalLoop=1;jettySize=auto;html=1;exitX=0.5;exitY=1;exitDx=0;exitDy=0;entryX=0.5;entryY=0;entryDx=0;entryDy=0;" edge="1" parent="1" source="jAihcUWYH7JJV95xpbsZ-86" target="jAihcUWYH7JJV95xpbsZ-87">
          <mxGeometry relative="1" as="geometry" />
        </mxCell>
        <mxCell id="jAihcUWYH7JJV95xpbsZ-86" value="ASR转写结果" style="rounded=1;whiteSpace=wrap;html=1;fillColor=#f8cecc;strokeColor=#b85450;" vertex="1" parent="1">
          <mxGeometry x="505" y="1223" width="75" height="30" as="geometry" />
        </mxCell>
        <mxCell id="jAihcUWYH7JJV95xpbsZ-121" style="edgeStyle=orthogonalEdgeStyle;rounded=0;orthogonalLoop=1;jettySize=auto;html=1;exitX=1;exitY=0.5;exitDx=0;exitDy=0;entryX=0;entryY=0.5;entryDx=0;entryDy=0;" edge="1" parent="1" source="jAihcUWYH7JJV95xpbsZ-87" target="jAihcUWYH7JJV95xpbsZ-84">
          <mxGeometry relative="1" as="geometry" />
        </mxCell>
        <mxCell id="jAihcUWYH7JJV95xpbsZ-87" value="关键字正则" style="rounded=1;whiteSpace=wrap;html=1;fillColor=#f8cecc;strokeColor=#b85450;" vertex="1" parent="1">
          <mxGeometry x="505" y="1300" width="75" height="30" as="geometry" />
        </mxCell>
        <mxCell id="jAihcUWYH7JJV95xpbsZ-124" style="edgeStyle=orthogonalEdgeStyle;rounded=0;orthogonalLoop=1;jettySize=auto;html=1;exitX=1;exitY=0.5;exitDx=0;exitDy=0;entryX=0;entryY=0.5;entryDx=0;entryDy=0;" edge="1" parent="1" source="jAihcUWYH7JJV95xpbsZ-88" target="jAihcUWYH7JJV95xpbsZ-84">
          <mxGeometry relative="1" as="geometry" />
        </mxCell>
        <mxCell id="jAihcUWYH7JJV95xpbsZ-88" value="历史会话信息" style="rounded=1;whiteSpace=wrap;html=1;fillColor=#f8cecc;strokeColor=#b85450;" vertex="1" parent="1">
          <mxGeometry x="505" y="1340" width="75" height="30" as="geometry" />
        </mxCell>
        <mxCell id="jAihcUWYH7JJV95xpbsZ-125" style="edgeStyle=orthogonalEdgeStyle;rounded=0;orthogonalLoop=1;jettySize=auto;html=1;exitX=1;exitY=0.5;exitDx=0;exitDy=0;entryX=0.5;entryY=0;entryDx=0;entryDy=0;" edge="1" parent="1" source="jAihcUWYH7JJV95xpbsZ-89" target="jAihcUWYH7JJV95xpbsZ-97">
          <mxGeometry relative="1" as="geometry" />
        </mxCell>
        <mxCell id="jAihcUWYH7JJV95xpbsZ-89" value="话术信息对话状态" style="rounded=1;whiteSpace=wrap;html=1;fillColor=#f8cecc;strokeColor=#b85450;" vertex="1" parent="1">
          <mxGeometry x="508" y="1380" width="75" height="30" as="geometry" />
        </mxCell>
        <mxCell id="jAihcUWYH7JJV95xpbsZ-128" style="edgeStyle=orthogonalEdgeStyle;rounded=0;orthogonalLoop=1;jettySize=auto;html=1;exitX=0.5;exitY=0;exitDx=0;exitDy=0;entryX=0.5;entryY=1;entryDx=0;entryDy=0;" edge="1" parent="1" source="jAihcUWYH7JJV95xpbsZ-90" target="jAihcUWYH7JJV95xpbsZ-94">
          <mxGeometry relative="1" as="geometry" />
        </mxCell>
        <mxCell id="jAihcUWYH7JJV95xpbsZ-129" style="edgeStyle=orthogonalEdgeStyle;rounded=0;orthogonalLoop=1;jettySize=auto;html=1;exitX=0.5;exitY=0;exitDx=0;exitDy=0;entryX=0.5;entryY=1;entryDx=0;entryDy=0;" edge="1" parent="1" source="jAihcUWYH7JJV95xpbsZ-90" target="jAihcUWYH7JJV95xpbsZ-95">
          <mxGeometry relative="1" as="geometry" />
        </mxCell>
        <mxCell id="jAihcUWYH7JJV95xpbsZ-130" style="edgeStyle=orthogonalEdgeStyle;rounded=0;orthogonalLoop=1;jettySize=auto;html=1;exitX=0.5;exitY=0;exitDx=0;exitDy=0;" edge="1" parent="1" source="jAihcUWYH7JJV95xpbsZ-90" target="jAihcUWYH7JJV95xpbsZ-93">
          <mxGeometry relative="1" as="geometry" />
        </mxCell>
        <mxCell id="jAihcUWYH7JJV95xpbsZ-90" value="DPL" style="rounded=1;whiteSpace=wrap;html=1;fillColor=#f8cecc;strokeColor=#b85450;" vertex="1" parent="1">
          <mxGeometry x="318" y="1328" width="75" height="30" as="geometry" />
        </mxCell>
        <mxCell id="jAihcUWYH7JJV95xpbsZ-127" style="edgeStyle=orthogonalEdgeStyle;rounded=0;orthogonalLoop=1;jettySize=auto;html=1;exitX=0.5;exitY=0;exitDx=0;exitDy=0;entryX=0.5;entryY=1;entryDx=0;entryDy=0;" edge="1" parent="1" source="jAihcUWYH7JJV95xpbsZ-91" target="jAihcUWYH7JJV95xpbsZ-90">
          <mxGeometry relative="1" as="geometry" />
        </mxCell>
        <mxCell id="jAihcUWYH7JJV95xpbsZ-91" value="对话状态更新" style="rounded=1;whiteSpace=wrap;html=1;fillColor=#f8cecc;strokeColor=#b85450;" vertex="1" parent="1">
          <mxGeometry x="318" y="1420" width="75" height="30" as="geometry" />
        </mxCell>
        <mxCell id="jAihcUWYH7JJV95xpbsZ-131" style="edgeStyle=orthogonalEdgeStyle;rounded=0;orthogonalLoop=1;jettySize=auto;html=1;exitX=0;exitY=0.5;exitDx=0;exitDy=0;" edge="1" parent="1" source="jAihcUWYH7JJV95xpbsZ-92" target="jAihcUWYH7JJV95xpbsZ-90">
          <mxGeometry relative="1" as="geometry" />
        </mxCell>
        <mxCell id="jAihcUWYH7JJV95xpbsZ-92" value="话术信息" style="rounded=1;whiteSpace=wrap;html=1;fillColor=#f8cecc;strokeColor=#b85450;" vertex="1" parent="1">
          <mxGeometry x="419" y="1328" width="75" height="30" as="geometry" />
        </mxCell>
        <mxCell id="jAihcUWYH7JJV95xpbsZ-93" value="ASR数据保存" style="rounded=1;whiteSpace=wrap;html=1;fillColor=#f8cecc;strokeColor=#b85450;" vertex="1" parent="1">
          <mxGeometry x="213" y="1251" width="75" height="30" as="geometry" />
        </mxCell>
        <mxCell id="jAihcUWYH7JJV95xpbsZ-134" style="edgeStyle=orthogonalEdgeStyle;rounded=0;orthogonalLoop=1;jettySize=auto;html=1;exitX=0.5;exitY=0;exitDx=0;exitDy=0;entryX=0.5;entryY=1;entryDx=0;entryDy=0;" edge="1" parent="1" source="jAihcUWYH7JJV95xpbsZ-94" target="jAihcUWYH7JJV95xpbsZ-78">
          <mxGeometry relative="1" as="geometry" />
        </mxCell>
        <mxCell id="jAihcUWYH7JJV95xpbsZ-94" value="打断、转接、挂机" style="rounded=1;whiteSpace=wrap;html=1;fillColor=#f8cecc;strokeColor=#b85450;" vertex="1" parent="1">
          <mxGeometry x="303" y="1250" width="105" height="30" as="geometry" />
        </mxCell>
        <mxCell id="jAihcUWYH7JJV95xpbsZ-132" style="edgeStyle=orthogonalEdgeStyle;rounded=0;orthogonalLoop=1;jettySize=auto;html=1;exitX=0.5;exitY=0;exitDx=0;exitDy=0;entryX=0.5;entryY=1;entryDx=0;entryDy=0;" edge="1" parent="1" source="jAihcUWYH7JJV95xpbsZ-95" target="jAihcUWYH7JJV95xpbsZ-82">
          <mxGeometry relative="1" as="geometry" />
        </mxCell>
        <mxCell id="jAihcUWYH7JJV95xpbsZ-95" value="回复内容" style="rounded=1;whiteSpace=wrap;html=1;fillColor=#f8cecc;strokeColor=#b85450;" vertex="1" parent="1">
          <mxGeometry x="427" y="1250" width="75" height="30" as="geometry" />
        </mxCell>
        <mxCell id="jAihcUWYH7JJV95xpbsZ-96" style="edgeStyle=orthogonalEdgeStyle;rounded=0;orthogonalLoop=1;jettySize=auto;html=1;exitX=0.5;exitY=1;exitDx=0;exitDy=0;" edge="1" parent="1" source="jAihcUWYH7JJV95xpbsZ-89" target="jAihcUWYH7JJV95xpbsZ-89">
          <mxGeometry relative="1" as="geometry" />
        </mxCell>
        <mxCell id="jAihcUWYH7JJV95xpbsZ-126" style="edgeStyle=orthogonalEdgeStyle;rounded=0;orthogonalLoop=1;jettySize=auto;html=1;exitX=0;exitY=0.5;exitDx=0;exitDy=0;entryX=1;entryY=0.5;entryDx=0;entryDy=0;" edge="1" parent="1" source="jAihcUWYH7JJV95xpbsZ-97" target="jAihcUWYH7JJV95xpbsZ-91">
          <mxGeometry relative="1" as="geometry" />
        </mxCell>
        <mxCell id="jAihcUWYH7JJV95xpbsZ-97" value="DST" style="rounded=1;whiteSpace=wrap;html=1;fillColor=#dae8fc;strokeColor=#6c8ebf;" vertex="1" parent="1">
          <mxGeometry x="585" y="1420" width="75" height="30" as="geometry" />
        </mxCell>
        <mxCell id="jAihcUWYH7JJV95xpbsZ-119" style="edgeStyle=orthogonalEdgeStyle;rounded=0;orthogonalLoop=1;jettySize=auto;html=1;exitX=1;exitY=0.5;exitDx=0;exitDy=0;entryX=1;entryY=0.5;entryDx=0;entryDy=0;" edge="1" parent="1" source="jAihcUWYH7JJV95xpbsZ-81" target="jAihcUWYH7JJV95xpbsZ-86">
          <mxGeometry relative="1" as="geometry" />
        </mxCell>
        <mxCell id="jAihcUWYH7JJV95xpbsZ-135" style="edgeStyle=orthogonalEdgeStyle;rounded=0;orthogonalLoop=1;jettySize=auto;html=1;exitX=0;exitY=0.5;exitDx=0;exitDy=0;entryX=0;entryY=0.5;entryDx=0;entryDy=0;" edge="1" parent="1" source="jAihcUWYH7JJV95xpbsZ-74" target="jAihcUWYH7JJV95xpbsZ-91">
          <mxGeometry relative="1" as="geometry" />
        </mxCell>
        <mxCell id="jAihcUWYH7JJV95xpbsZ-140" value="运营商" style="text;html=1;strokeColor=none;fillColor=none;align=center;verticalAlign=middle;whiteSpace=wrap;rounded=0;" vertex="1" parent="1">
          <mxGeometry x="700" y="1000" width="55" height="20" as="geometry" />
        </mxCell>
        <mxCell id="jAihcUWYH7JJV95xpbsZ-141" value="通信层" style="text;html=1;strokeColor=none;fillColor=none;align=center;verticalAlign=middle;whiteSpace=wrap;rounded=0;" vertex="1" parent="1">
          <mxGeometry x="160" y="1080" width="50" height="20" as="geometry" />
        </mxCell>
        <mxCell id="jAihcUWYH7JJV95xpbsZ-143" value="算法层" style="text;html=1;strokeColor=none;fillColor=none;align=center;verticalAlign=middle;whiteSpace=wrap;rounded=0;" vertex="1" parent="1">
          <mxGeometry x="705" y="1260" width="50" height="30" as="geometry" />
        </mxCell>
        <mxCell id="jAihcUWYH7JJV95xpbsZ-145" value="业务层" style="text;html=1;strokeColor=none;fillColor=none;align=center;verticalAlign=middle;whiteSpace=wrap;rounded=0;" vertex="1" parent="1">
          <mxGeometry x="206" y="1190" width="50" height="30" as="geometry" />
        </mxCell>
      </root>
    </mxGraphModel>
  </diagram>
</mxfile>
